<mxfile host="app.diagrams.net" modified="2024-04-29T09:32:53.748Z" agent="Mozilla/5.0 (X11; Ubuntu; Linux x86_64; rv:123.0) Gecko/20100101 Firefox/123.0" etag="IxGGkhkTySMYyi6YNSah" version="24.3.1" type="device">
  <diagram name="Page-1" id="yLBOF1aZCvmNsZlNOTB5">
    <mxGraphModel dx="956" dy="507" grid="1" gridSize="10" guides="1" tooltips="1" connect="1" arrows="1" fold="1" page="1" pageScale="1" pageWidth="827" pageHeight="1169" math="0" shadow="0">
      <root>
        <mxCell id="0" />
        <mxCell id="1" parent="0" />
        <mxCell id="ybGrIDfEgdniTeUTcgUt-2" value="" style="endArrow=classic;html=1;rounded=0;entryX=0.5;entryY=0;entryDx=0;entryDy=0;exitX=0.5;exitY=1;exitDx=0;exitDy=0;exitPerimeter=0;" edge="1" parent="1" source="ybGrIDfEgdniTeUTcgUt-59" target="ybGrIDfEgdniTeUTcgUt-78">
          <mxGeometry width="50" height="50" relative="1" as="geometry">
            <mxPoint x="420" y="130" as="sourcePoint" />
            <mxPoint x="420" y="150" as="targetPoint" />
          </mxGeometry>
        </mxCell>
        <mxCell id="ybGrIDfEgdniTeUTcgUt-12" style="edgeStyle=orthogonalEdgeStyle;rounded=0;orthogonalLoop=1;jettySize=auto;html=1;" edge="1" parent="1" source="ybGrIDfEgdniTeUTcgUt-3" target="ybGrIDfEgdniTeUTcgUt-11">
          <mxGeometry relative="1" as="geometry" />
        </mxCell>
        <mxCell id="ybGrIDfEgdniTeUTcgUt-13" value="&lt;div&gt;oui&lt;/div&gt;" style="edgeLabel;html=1;align=center;verticalAlign=middle;resizable=0;points=[];" vertex="1" connectable="0" parent="ybGrIDfEgdniTeUTcgUt-12">
          <mxGeometry x="0.275" y="-1" relative="1" as="geometry">
            <mxPoint as="offset" />
          </mxGeometry>
        </mxCell>
        <mxCell id="ybGrIDfEgdniTeUTcgUt-3" value="demande correcte ?" style="rhombus;whiteSpace=wrap;html=1;" vertex="1" parent="1">
          <mxGeometry x="380" y="280" width="80" height="80" as="geometry" />
        </mxCell>
        <mxCell id="ybGrIDfEgdniTeUTcgUt-7" value="" style="endArrow=classic;html=1;rounded=0;exitX=1;exitY=0.5;exitDx=0;exitDy=0;entryX=0.25;entryY=0;entryDx=0;entryDy=0;" edge="1" parent="1" source="ybGrIDfEgdniTeUTcgUt-36" target="ybGrIDfEgdniTeUTcgUt-78">
          <mxGeometry width="50" height="50" relative="1" as="geometry">
            <mxPoint x="320" y="260" as="sourcePoint" />
            <mxPoint x="360" y="270" as="targetPoint" />
          </mxGeometry>
        </mxCell>
        <mxCell id="ybGrIDfEgdniTeUTcgUt-9" value="" style="endArrow=classic;html=1;rounded=0;exitX=1;exitY=0.5;exitDx=0;exitDy=0;edgeStyle=orthogonalEdgeStyle;entryX=0.5;entryY=0;entryDx=0;entryDy=0;" edge="1" parent="1" source="ybGrIDfEgdniTeUTcgUt-3" target="ybGrIDfEgdniTeUTcgUt-61">
          <mxGeometry width="50" height="50" relative="1" as="geometry">
            <mxPoint x="410" y="360" as="sourcePoint" />
            <mxPoint x="630" y="330" as="targetPoint" />
          </mxGeometry>
        </mxCell>
        <mxCell id="ybGrIDfEgdniTeUTcgUt-10" value="&lt;div&gt;non&lt;/div&gt;" style="edgeLabel;html=1;align=center;verticalAlign=middle;resizable=0;points=[];" vertex="1" connectable="0" parent="ybGrIDfEgdniTeUTcgUt-9">
          <mxGeometry x="-0.1645" y="1" relative="1" as="geometry">
            <mxPoint as="offset" />
          </mxGeometry>
        </mxCell>
        <mxCell id="ybGrIDfEgdniTeUTcgUt-18" value="non" style="edgeStyle=orthogonalEdgeStyle;rounded=0;orthogonalLoop=1;jettySize=auto;html=1;exitX=0.5;exitY=1;exitDx=0;exitDy=0;" edge="1" parent="1" source="ybGrIDfEgdniTeUTcgUt-11" target="ybGrIDfEgdniTeUTcgUt-17">
          <mxGeometry relative="1" as="geometry" />
        </mxCell>
        <mxCell id="ybGrIDfEgdniTeUTcgUt-80" value="oui" style="edgeStyle=orthogonalEdgeStyle;rounded=0;orthogonalLoop=1;jettySize=auto;html=1;entryX=0.5;entryY=0;entryDx=0;entryDy=0;" edge="1" parent="1" source="ybGrIDfEgdniTeUTcgUt-11" target="ybGrIDfEgdniTeUTcgUt-14">
          <mxGeometry relative="1" as="geometry">
            <mxPoint x="650" y="1000" as="targetPoint" />
            <Array as="points">
              <mxPoint x="620" y="440" />
              <mxPoint x="620" y="1010" />
            </Array>
          </mxGeometry>
        </mxCell>
        <mxCell id="ybGrIDfEgdniTeUTcgUt-84" style="edgeStyle=orthogonalEdgeStyle;rounded=0;orthogonalLoop=1;jettySize=auto;html=1;" edge="1" parent="1" source="ybGrIDfEgdniTeUTcgUt-11" target="ybGrIDfEgdniTeUTcgUt-83">
          <mxGeometry relative="1" as="geometry">
            <Array as="points">
              <mxPoint x="414" y="490" />
              <mxPoint x="220" y="490" />
            </Array>
          </mxGeometry>
        </mxCell>
        <mxCell id="ybGrIDfEgdniTeUTcgUt-11" value="déjà en stock ?" style="rhombus;whiteSpace=wrap;html=1;" vertex="1" parent="1">
          <mxGeometry x="374" y="400" width="80" height="80" as="geometry" />
        </mxCell>
        <mxCell id="ybGrIDfEgdniTeUTcgUt-77" style="edgeStyle=orthogonalEdgeStyle;rounded=0;orthogonalLoop=1;jettySize=auto;html=1;entryX=1;entryY=0.5;entryDx=0;entryDy=0;" edge="1" parent="1" source="ybGrIDfEgdniTeUTcgUt-14" target="ybGrIDfEgdniTeUTcgUt-76">
          <mxGeometry relative="1" as="geometry" />
        </mxCell>
        <mxCell id="ybGrIDfEgdniTeUTcgUt-14" value="obtention" style="ellipse;whiteSpace=wrap;html=1;aspect=fixed;" vertex="1" parent="1">
          <mxGeometry x="710" y="1010" width="80" height="80" as="geometry" />
        </mxCell>
        <mxCell id="ybGrIDfEgdniTeUTcgUt-20" style="edgeStyle=orthogonalEdgeStyle;rounded=0;orthogonalLoop=1;jettySize=auto;html=1;entryX=1;entryY=0;entryDx=0;entryDy=0;" edge="1" parent="1" source="ybGrIDfEgdniTeUTcgUt-17" target="ybGrIDfEgdniTeUTcgUt-69">
          <mxGeometry relative="1" as="geometry">
            <mxPoint x="413.9999999999998" y="620" as="targetPoint" />
          </mxGeometry>
        </mxCell>
        <mxCell id="ybGrIDfEgdniTeUTcgUt-82" style="rounded=0;orthogonalLoop=1;jettySize=auto;html=1;entryX=0.75;entryY=0;entryDx=0;entryDy=0;" edge="1" parent="1" source="ybGrIDfEgdniTeUTcgUt-17" target="ybGrIDfEgdniTeUTcgUt-81">
          <mxGeometry relative="1" as="geometry" />
        </mxCell>
        <mxCell id="ybGrIDfEgdniTeUTcgUt-17" value="apposition du visa" style="rounded=0;whiteSpace=wrap;html=1;gradientColor=none;" vertex="1" parent="1">
          <mxGeometry x="354" y="510" width="120" height="60" as="geometry" />
        </mxCell>
        <mxCell id="ybGrIDfEgdniTeUTcgUt-26" style="edgeStyle=orthogonalEdgeStyle;rounded=0;orthogonalLoop=1;jettySize=auto;html=1;entryX=0.5;entryY=0;entryDx=0;entryDy=0;" edge="1" parent="1" source="ybGrIDfEgdniTeUTcgUt-65" target="ybGrIDfEgdniTeUTcgUt-61">
          <mxGeometry relative="1" as="geometry">
            <mxPoint x="474" y="770" as="sourcePoint" />
            <mxPoint x="690.0000000000002" y="370" as="targetPoint" />
          </mxGeometry>
        </mxCell>
        <mxCell id="ybGrIDfEgdniTeUTcgUt-27" value="non" style="edgeLabel;html=1;align=center;verticalAlign=middle;resizable=0;points=[];" vertex="1" connectable="0" parent="ybGrIDfEgdniTeUTcgUt-26">
          <mxGeometry x="-0.9148" y="-1" relative="1" as="geometry">
            <mxPoint as="offset" />
          </mxGeometry>
        </mxCell>
        <mxCell id="ybGrIDfEgdniTeUTcgUt-91" style="edgeStyle=orthogonalEdgeStyle;rounded=0;orthogonalLoop=1;jettySize=auto;html=1;entryX=0.5;entryY=0;entryDx=0;entryDy=0;" edge="1" parent="1" source="ybGrIDfEgdniTeUTcgUt-28" target="ybGrIDfEgdniTeUTcgUt-70">
          <mxGeometry relative="1" as="geometry" />
        </mxCell>
        <mxCell id="ybGrIDfEgdniTeUTcgUt-95" style="rounded=0;orthogonalLoop=1;jettySize=auto;html=1;" edge="1" parent="1" source="ybGrIDfEgdniTeUTcgUt-28" target="ybGrIDfEgdniTeUTcgUt-94">
          <mxGeometry relative="1" as="geometry" />
        </mxCell>
        <mxCell id="ybGrIDfEgdniTeUTcgUt-28" value="ajoute  sur les liste de fourniture" style="rounded=0;whiteSpace=wrap;html=1;" vertex="1" parent="1">
          <mxGeometry x="384" y="850" width="120" height="60" as="geometry" />
        </mxCell>
        <mxCell id="ybGrIDfEgdniTeUTcgUt-47" style="edgeStyle=orthogonalEdgeStyle;rounded=0;orthogonalLoop=1;jettySize=auto;html=1;entryX=-0.032;entryY=0.539;entryDx=0;entryDy=0;entryPerimeter=0;" edge="1" parent="1" source="ybGrIDfEgdniTeUTcgUt-34" target="ybGrIDfEgdniTeUTcgUt-46">
          <mxGeometry relative="1" as="geometry">
            <mxPoint x="390" y="1189.9999999999998" as="targetPoint" />
          </mxGeometry>
        </mxCell>
        <mxCell id="ybGrIDfEgdniTeUTcgUt-49" value="&lt;div&gt;oui&lt;/div&gt;" style="edgeLabel;html=1;align=center;verticalAlign=middle;resizable=0;points=[];" vertex="1" connectable="0" parent="ybGrIDfEgdniTeUTcgUt-47">
          <mxGeometry x="-0.1071" y="3" relative="1" as="geometry">
            <mxPoint y="1" as="offset" />
          </mxGeometry>
        </mxCell>
        <mxCell id="ybGrIDfEgdniTeUTcgUt-51" style="edgeStyle=orthogonalEdgeStyle;rounded=0;orthogonalLoop=1;jettySize=auto;html=1;" edge="1" parent="1" source="ybGrIDfEgdniTeUTcgUt-34" target="ybGrIDfEgdniTeUTcgUt-50">
          <mxGeometry relative="1" as="geometry" />
        </mxCell>
        <mxCell id="ybGrIDfEgdniTeUTcgUt-34" value="conforme ?" style="rhombus;whiteSpace=wrap;html=1;" vertex="1" parent="1">
          <mxGeometry x="254" y="1410" width="80" height="80" as="geometry" />
        </mxCell>
        <mxCell id="ybGrIDfEgdniTeUTcgUt-36" value="demande de fournitures" style="shape=parallelogram;perimeter=parallelogramPerimeter;whiteSpace=wrap;html=1;fixedSize=1;" vertex="1" parent="1">
          <mxGeometry x="206" y="110" width="120" height="30" as="geometry" />
        </mxCell>
        <mxCell id="ybGrIDfEgdniTeUTcgUt-39" value="&lt;div&gt;stocks&lt;/div&gt;" style="shape=parallelogram;perimeter=parallelogramPerimeter;whiteSpace=wrap;html=1;fixedSize=1;" vertex="1" parent="1">
          <mxGeometry x="210" y="360" width="120" height="60" as="geometry" />
        </mxCell>
        <mxCell id="ybGrIDfEgdniTeUTcgUt-41" value="" style="endArrow=classic;html=1;rounded=0;exitX=1;exitY=0.5;exitDx=0;exitDy=0;entryX=0.5;entryY=0;entryDx=0;entryDy=0;" edge="1" parent="1" source="ybGrIDfEgdniTeUTcgUt-39" target="ybGrIDfEgdniTeUTcgUt-11">
          <mxGeometry width="50" height="50" relative="1" as="geometry">
            <mxPoint x="460" y="410" as="sourcePoint" />
            <mxPoint x="510" y="360" as="targetPoint" />
          </mxGeometry>
        </mxCell>
        <mxCell id="ybGrIDfEgdniTeUTcgUt-44" value="réception commande" style="shape=parallelogram;perimeter=parallelogramPerimeter;whiteSpace=wrap;html=1;fixedSize=1;" vertex="1" parent="1">
          <mxGeometry x="90" y="1350" width="120" height="60" as="geometry" />
        </mxCell>
        <mxCell id="ybGrIDfEgdniTeUTcgUt-45" value="" style="endArrow=classic;html=1;rounded=0;exitX=1;exitY=0.75;exitDx=0;exitDy=0;entryX=0.575;entryY=0;entryDx=0;entryDy=0;entryPerimeter=0;" edge="1" parent="1" source="ybGrIDfEgdniTeUTcgUt-44" target="ybGrIDfEgdniTeUTcgUt-34">
          <mxGeometry width="50" height="50" relative="1" as="geometry">
            <mxPoint x="50" y="1350" as="sourcePoint" />
            <mxPoint x="100" y="1300" as="targetPoint" />
          </mxGeometry>
        </mxCell>
        <mxCell id="ybGrIDfEgdniTeUTcgUt-48" style="edgeStyle=orthogonalEdgeStyle;rounded=0;orthogonalLoop=1;jettySize=auto;html=1;" edge="1" parent="1" source="ybGrIDfEgdniTeUTcgUt-46" target="ybGrIDfEgdniTeUTcgUt-14">
          <mxGeometry relative="1" as="geometry" />
        </mxCell>
        <mxCell id="ybGrIDfEgdniTeUTcgUt-46" value="notes puis archive" style="rounded=0;whiteSpace=wrap;html=1;" vertex="1" parent="1">
          <mxGeometry x="620" y="1410" width="120" height="60" as="geometry" />
        </mxCell>
        <mxCell id="ybGrIDfEgdniTeUTcgUt-52" style="edgeStyle=orthogonalEdgeStyle;rounded=0;orthogonalLoop=1;jettySize=auto;html=1;entryX=0.5;entryY=0;entryDx=0;entryDy=0;" edge="1" parent="1" target="ybGrIDfEgdniTeUTcgUt-34">
          <mxGeometry relative="1" as="geometry">
            <mxPoint x="290" y="1400" as="targetPoint" />
            <mxPoint x="234" y="1560" as="sourcePoint" />
            <Array as="points">
              <mxPoint x="234" y="1561" />
              <mxPoint x="220" y="1561" />
              <mxPoint x="220" y="1481" />
              <mxPoint x="221" y="1481" />
              <mxPoint x="221" y="1400" />
              <mxPoint x="294" y="1400" />
            </Array>
          </mxGeometry>
        </mxCell>
        <mxCell id="ybGrIDfEgdniTeUTcgUt-50" value="informe le fournisseur" style="rounded=0;whiteSpace=wrap;html=1;" vertex="1" parent="1">
          <mxGeometry x="234" y="1520" width="120" height="60" as="geometry" />
        </mxCell>
        <mxCell id="ybGrIDfEgdniTeUTcgUt-53" value="informe du retard" style="shape=parallelogram;perimeter=parallelogramPerimeter;whiteSpace=wrap;html=1;fixedSize=1;" vertex="1" parent="1">
          <mxGeometry x="393" y="1488" width="120" height="60" as="geometry" />
        </mxCell>
        <mxCell id="ybGrIDfEgdniTeUTcgUt-55" value="non" style="text;html=1;align=center;verticalAlign=middle;resizable=0;points=[];autosize=1;strokeColor=none;fillColor=none;" vertex="1" parent="1">
          <mxGeometry x="271" y="1488" width="40" height="30" as="geometry" />
        </mxCell>
        <mxCell id="ybGrIDfEgdniTeUTcgUt-56" value="" style="endArrow=classic;html=1;rounded=0;exitX=1.059;exitY=0.608;exitDx=0;exitDy=0;exitPerimeter=0;entryX=0;entryY=0.5;entryDx=0;entryDy=0;" edge="1" parent="1" source="ybGrIDfEgdniTeUTcgUt-55" target="ybGrIDfEgdniTeUTcgUt-53">
          <mxGeometry width="50" height="50" relative="1" as="geometry">
            <mxPoint x="360" y="1180" as="sourcePoint" />
            <mxPoint x="410" y="1130" as="targetPoint" />
          </mxGeometry>
        </mxCell>
        <mxCell id="ybGrIDfEgdniTeUTcgUt-59" value="Traitement des demandes de fournitures" style="strokeWidth=2;html=1;shape=mxgraph.flowchart.terminator;whiteSpace=wrap;" vertex="1" parent="1">
          <mxGeometry x="370" y="60" width="100" height="60" as="geometry" />
        </mxCell>
        <mxCell id="ybGrIDfEgdniTeUTcgUt-64" style="rounded=0;orthogonalLoop=1;jettySize=auto;html=1;" edge="1" parent="1" source="ybGrIDfEgdniTeUTcgUt-61" target="ybGrIDfEgdniTeUTcgUt-62">
          <mxGeometry relative="1" as="geometry" />
        </mxCell>
        <mxCell id="ybGrIDfEgdniTeUTcgUt-61" value="demande refusé" style="rounded=0;whiteSpace=wrap;html=1;" vertex="1" parent="1">
          <mxGeometry x="660" y="890" width="120" height="60" as="geometry" />
        </mxCell>
        <mxCell id="ybGrIDfEgdniTeUTcgUt-62" value="notification de refus" style="shape=parallelogram;perimeter=parallelogramPerimeter;whiteSpace=wrap;html=1;fixedSize=1;" vertex="1" parent="1">
          <mxGeometry x="810" y="960" width="120" height="60" as="geometry" />
        </mxCell>
        <mxCell id="ybGrIDfEgdniTeUTcgUt-65" value="" style="triangle;whiteSpace=wrap;html=1;" vertex="1" parent="1">
          <mxGeometry x="444" y="730" width="60" height="80" as="geometry" />
        </mxCell>
        <mxCell id="ybGrIDfEgdniTeUTcgUt-71" style="edgeStyle=orthogonalEdgeStyle;rounded=0;orthogonalLoop=1;jettySize=auto;html=1;entryX=0.5;entryY=0;entryDx=0;entryDy=0;exitX=0.5;exitY=1;exitDx=0;exitDy=0;" edge="1" parent="1" source="ybGrIDfEgdniTeUTcgUt-69" target="ybGrIDfEgdniTeUTcgUt-70">
          <mxGeometry relative="1" as="geometry" />
        </mxCell>
        <mxCell id="ybGrIDfEgdniTeUTcgUt-86" style="edgeStyle=orthogonalEdgeStyle;rounded=0;orthogonalLoop=1;jettySize=auto;html=1;" edge="1" parent="1" source="ybGrIDfEgdniTeUTcgUt-66" target="ybGrIDfEgdniTeUTcgUt-28">
          <mxGeometry relative="1" as="geometry" />
        </mxCell>
        <mxCell id="ybGrIDfEgdniTeUTcgUt-66" value="présent dans registre" style="rounded=0;whiteSpace=wrap;html=1;" vertex="1" parent="1">
          <mxGeometry x="370" y="730" width="74" height="80" as="geometry" />
        </mxCell>
        <mxCell id="ybGrIDfEgdniTeUTcgUt-68" value="" style="triangle;whiteSpace=wrap;html=1;rotation=-180;" vertex="1" parent="1">
          <mxGeometry x="236" y="730" width="60" height="80" as="geometry" />
        </mxCell>
        <mxCell id="ybGrIDfEgdniTeUTcgUt-69" value="présent chez fournisseur" style="rounded=0;whiteSpace=wrap;html=1;" vertex="1" parent="1">
          <mxGeometry x="296" y="730" width="74" height="80" as="geometry" />
        </mxCell>
        <mxCell id="ybGrIDfEgdniTeUTcgUt-74" style="edgeStyle=orthogonalEdgeStyle;rounded=0;orthogonalLoop=1;jettySize=auto;html=1;entryX=1;entryY=0.5;entryDx=0;entryDy=0;" edge="1" parent="1" source="ybGrIDfEgdniTeUTcgUt-70" target="ybGrIDfEgdniTeUTcgUt-73">
          <mxGeometry relative="1" as="geometry" />
        </mxCell>
        <mxCell id="ybGrIDfEgdniTeUTcgUt-88" style="edgeStyle=orthogonalEdgeStyle;rounded=0;orthogonalLoop=1;jettySize=auto;html=1;" edge="1" parent="1" source="ybGrIDfEgdniTeUTcgUt-70" target="ybGrIDfEgdniTeUTcgUt-34">
          <mxGeometry relative="1" as="geometry" />
        </mxCell>
        <mxCell id="ybGrIDfEgdniTeUTcgUt-70" value="commande chez fournisseur" style="rounded=0;whiteSpace=wrap;html=1;" vertex="1" parent="1">
          <mxGeometry x="273" y="1220" width="120" height="60" as="geometry" />
        </mxCell>
        <mxCell id="ybGrIDfEgdniTeUTcgUt-73" value="&amp;nbsp;commande" style="shape=parallelogram;perimeter=parallelogramPerimeter;whiteSpace=wrap;html=1;fixedSize=1;" vertex="1" parent="1">
          <mxGeometry x="20" y="1160" width="120" height="60" as="geometry" />
        </mxCell>
        <mxCell id="ybGrIDfEgdniTeUTcgUt-76" value="notification de fin" style="shape=parallelogram;perimeter=parallelogramPerimeter;whiteSpace=wrap;html=1;fixedSize=1;" vertex="1" parent="1">
          <mxGeometry x="550" y="1020" width="120" height="60" as="geometry" />
        </mxCell>
        <mxCell id="ybGrIDfEgdniTeUTcgUt-79" style="edgeStyle=orthogonalEdgeStyle;rounded=0;orthogonalLoop=1;jettySize=auto;html=1;entryX=0.5;entryY=0;entryDx=0;entryDy=0;" edge="1" parent="1" source="ybGrIDfEgdniTeUTcgUt-78" target="ybGrIDfEgdniTeUTcgUt-3">
          <mxGeometry relative="1" as="geometry" />
        </mxCell>
        <mxCell id="ybGrIDfEgdniTeUTcgUt-78" value="demande de fournitures" style="rounded=0;whiteSpace=wrap;html=1;gradientColor=none;" vertex="1" parent="1">
          <mxGeometry x="360" y="150" width="120" height="60" as="geometry" />
        </mxCell>
        <mxCell id="ybGrIDfEgdniTeUTcgUt-81" value="demande validée" style="shape=parallelogram;perimeter=parallelogramPerimeter;whiteSpace=wrap;html=1;fixedSize=1;" vertex="1" parent="1">
          <mxGeometry x="240" y="590" width="120" height="60" as="geometry" />
        </mxCell>
        <mxCell id="ybGrIDfEgdniTeUTcgUt-83" value="archivage demande" style="rounded=0;whiteSpace=wrap;html=1;gradientColor=none;" vertex="1" parent="1">
          <mxGeometry x="160" y="510" width="120" height="60" as="geometry" />
        </mxCell>
        <mxCell id="ybGrIDfEgdniTeUTcgUt-93" style="rounded=0;orthogonalLoop=1;jettySize=auto;html=1;entryX=0;entryY=0;entryDx=0;entryDy=0;" edge="1" parent="1" source="ybGrIDfEgdniTeUTcgUt-92" target="ybGrIDfEgdniTeUTcgUt-66">
          <mxGeometry relative="1" as="geometry" />
        </mxCell>
        <mxCell id="ybGrIDfEgdniTeUTcgUt-92" value="&lt;div&gt;liste fourniture&lt;/div&gt;&lt;div&gt;registre fournisseur&lt;/div&gt;&lt;div&gt;fournisseur&lt;br&gt;&lt;/div&gt;" style="shape=parallelogram;perimeter=parallelogramPerimeter;whiteSpace=wrap;html=1;fixedSize=1;" vertex="1" parent="1">
          <mxGeometry x="70" y="650" width="120" height="60" as="geometry" />
        </mxCell>
        <mxCell id="ybGrIDfEgdniTeUTcgUt-94" value="enregistrement sur les liste" style="shape=parallelogram;perimeter=parallelogramPerimeter;whiteSpace=wrap;html=1;fixedSize=1;" vertex="1" parent="1">
          <mxGeometry x="480" y="940" width="120" height="60" as="geometry" />
        </mxCell>
      </root>
    </mxGraphModel>
  </diagram>
</mxfile>
